<!-- www.izmirmag.net  -->
<svg version="1.1" xmlns="http://www.w3.org/2000/svg" xmlns:xlink="http://www.w3.org/1999/xlink" viewBox="0 0 91 15.7" xml:space="preserve">
<path fill="#FFC709" d="M8,0l2.5,5.1L16,6l-4,4l0.9,5.7L8,13.1l-4.9,2.6L4,10L0,6l5.5-0.9 M26,0l2.5,5.1L34,6l-4,4l0.9,5.7L26,13.1 l-4.9,2.6L22,10l-4-4l5.5-0.9 M45,0l2.5,5.1L53,6l-4,4l0.9,5.7L45,13.1l-4.9,2.6L41,10l-4-4l5.5-0.9"/>
<path fill="#E9E9EB" d="M64,0l2.5,5.1L72,6l-4,4l0.9,5.7L64,13.1l-4.9,2.6L60,10l-4-4l5.5-0.9 M83,0l2.5,5.1L91,6l-4,4l0.9,5.7 L83,13.1l-4.9,2.6L79,10l-4-4l5.5-0.9"/>
</svg>
