<!-- www.izmirmag.net  -->
<svg version="1.1" xmlns="http://www.w3.org/2000/svg" xmlns:xlink="http://www.w3.org/1999/xlink" viewBox="0 0 91 15.7" xml:space="preserve">
<polyline fill="#FFC709" points="8,0 10.5,5.1 16,6 12,10 12.9,15.7 8,13.1 3.1,15.7 4,10 0,6 5.5,5.1 "/>
<polyline fill="#FFC709" points="26,0 28.5,5.1 34,6 30,10 30.9,15.7 26,13.1 21.1,15.7 22,10 18,6 23.5,5.1 "/>
<polyline fill="#FFC709" points="45,0 47.5,5.1 53,6 49,10 49.9,15.7 45,13.1 40.1,15.7 41,10 37,6 42.5,5.1 "/>
<polyline fill="#FFC709" points="64,0 66.5,5.1 72,6 68,10 68.9,15.7 64,13.1 59.1,15.7 60,10 56,6 61.5,5.1 "/>
<polyline fill="#FFC709" points="83,0 85.5,5.1 91,6 87,10 87.9,15.7 83,13.1 78.1,15.7 79,10 75,6 80.5,5.1 "/>
</svg>
