<svg height="512pt" viewBox="0 0 512 512" width="512pt" xmlns="http://www.w3.org/2000/svg"><path d="m512 256c0 141.386719-114.613281 256-256 256s-256-114.613281-256-256 114.613281-256 256-256 256 114.613281 256 256zm0 0" fill="#4bb4f5"/><path d="m512 256c0-1.296875-.03125-2.585938-.050781-3.878906l-117.949219-117.949219h-16.34375l-16-16.171875-46.992188 55.332031-132.148437-39.160156-16-16.171875-48.515625 276 117.152344 117.152344c6.875.554687 13.828125.847656 20.847656.847656 141.386719 0 256-114.613281 256-256zm0 0" fill="#367a9f"/><path d="m394 182.6875v-48.515625h-138l-32.34375 88.945313zm0 0" fill="#f85b3f"/><path d="m256 134.171875h-138v48.515625l138 40.429688zm0 0" fill="#ff7f67"/><path d="m256 182.6875-32.34375 105.65625 32.34375 105.65625h138v-211.3125zm0 0" fill="#ced0ce"/><path d="m118 182.6875h138v211.3125h-138zm0 0" fill="#e7e7e6"/><path d="m256 231.203125-24.761719 61.183594 24.761719 61.183593h97.570312v-122.367187zm0 0" fill="#e7e7e6"/><path d="m158.429688 231.203125h97.570312v122.367187h-97.570312zm0 0" fill="#fff"/><path d="m150.34375 118h16.171875v48.515625h-16.171875zm0 0" fill="#3e575f"/><path d="m345.484375 118h16.171875v48.515625h-16.171875zm0 0" fill="#203f49"/><path d="m361.65625 215.03125h-105.65625l-10.78125 8.085938 10.78125 8.085937h24.4375v49.054687h-24.4375l-10.78125 8.054688 10.78125 8.117188h24.4375v49.054687h-24.4375l-10.78125 8.085937 10.78125 8.085938h105.65625zm-16.171875 130.453125h-48.875v-49.054687h48.875zm0-65.226563h-48.875v-49.054687h48.875zm0 0" fill="#7a888a"/><path d="m231.5625 345.484375v-49.054687h24.4375v-16.171876h-24.4375v-49.054687h24.4375v-16.171875h-105.65625v146.625h105.65625v-16.171875zm-16.171875 0h-48.875v-49.054687h48.875zm0-65.226563h-48.875v-49.054687h48.875zm0 0" fill="#98a09f"/></svg>