<svg xmlns="http://www.w3.org/2000/svg" xmlns:xlink="http://www.w3.org/1999/xlink" version="1.1" id="Layer_1" x="0px" y="0px" viewBox="0 0 512 512" style="enable-background:new 0 0 512 512;" xml:space="preserve">
<g>
	<circle style="fill: #ffffff;" cx="256" cy="256" r="256"/>
	<circle style="fill:#31BAFD;" cx="256" cy="256" r="256"/>
</g>
<path style="fill: #3797c7;" d="M511.926,261.816l-125.34-125.34l-211.609,91.367l-34.478,23.561l80.951,80.951l-139.564,24.35  l154.559,154.558C242.898,511.75,249.42,512,256,512C395.44,512,508.833,400.513,511.926,261.816z"/>
<polygon style="fill:#324A5E;" points="215.097,356.705 81.886,356.705 81.886,332.571 196.917,332.571 221.989,245.201   245.189,251.857 "/>
<circle style="fill:#E6F3FF;" cx="207.731" cy="345.074" r="28.444"/>
<path style="fill:#CFDBE6;" d="M236.175,345.069c0-15.71-12.734-28.444-28.444-28.444v56.889  C223.441,373.513,236.175,360.777,236.175,345.069z"/>
<polygon style="fill:#324A5E;" points="405.549,240.773 352.108,240.773 367.623,156.301 405.549,156.301 "/>
<polygon style="fill:#2B3B4E;" points="360.498,195.089 352.108,240.773 405.549,240.773 405.549,195.089 "/>
<path style="fill:#E6F3FF;" d="M358.141,260.598H161.904c-17.296,0-31.318-15.296-31.318-34.164v-55.792  c0-18.868,14.022-34.164,31.318-34.164h224.682L358.141,260.598z"/>
<path style="fill:#CFDBE6;" d="M130.586,195.089v31.344c0,18.868,14.022,34.164,31.318,34.164h196.237l15.012-65.508  L130.586,195.089L130.586,195.089z"/>
<rect x="158.168" y="211.902" style="fill:#FFD15D;" width="85.333" height="28.444"/>
</svg>