<svg xmlns="http://www.w3.org/2000/svg" viewBox="0 0 512 512"><path d="m512 256c0 141.386719-114.613281 256-256 256s-256-114.613281-256-256 114.613281-256 256-256 256 114.613281 256 256zm0 0" fill="#4bb9ec"/><path d="m314.175781 104.972656-160.601562 160.601563 48.03125 48.03125-92.15625 92.15625 102.441406 102.4375c14.328125 2.492187 29.066406 3.800781 44.109375 3.800781 126.675781 0 231.84375-92.011719 252.359375-212.84375zm0 0" fill="#0095ff"/><path d="m117.824219 211.992188-18.714844 72.273437 44.214844 43.570313 82.25-175.863282zm0 0" fill="#ffb99c"/><path d="m289.121094 90.492188-25.101563-14.492188-19.324219 34.113281 15.921876 30.390625.125.230469.730468 1.378906 33.425782-3.015625 19.324218-34.113281zm0 0" fill="#61729b"/><path d="m294.898438 139.097656 19.324218-34.113281-25.101562-14.492187-28.378906 50.242187.730468 1.378906zm0 0" fill="#47568c"/><path d="m269.90625 124.714844-25.230469-14.554688-121.734375 213.710938 15.347656 30.886718.113282.222657 34.78125-2.125 41.542968-73.039063 45.023438-25.894531 12.363281-74.78125 22.800781-39.996094zm0 0" fill="#ff641a"/><path d="m173.183594 352.855469 41.542968-73.039063 45.023438-25.894531 12.363281-74.78125 22.800781-39.996094-25.007812-14.429687-131.617188 230.042968.113282.222657zm0 0" fill="#f03800"/><path d="m254.339844 308.605469v77.292969h-38.648438l-19.320312-39.453126 19.320312-37.839843zm0 0" fill="#ff9468"/><path d="m177.046875 308.605469h38.644531v77.292969h-38.644531zm0 0" fill="#ffb99c"/><g fill="#ffcebf"><path d="m382.0625 231.316406-109.949219-52.175781-57.386719 100.675781 214.164063 64.730469v-113.230469zm0 0"/><path d="m244.675781 250.636719-97.578125 78.0625 8.886719 7.730469c16.8125 14.105468 42.703125 15.652343 61.253906 3.285156l17.777344-11.785156 77.292969 38.644531h49.851562l66.730469-22.027344zm0 0"/><path d="m147.800781 338.132812-24.839843-14.339843-13.546876 82.070312 63.75-53.085937zm0 0"/></g><path d="m147.800781 338.132812-38.386719 67.730469 63.75-53.085937zm0 0" fill="#ffb99c"/></svg>
