<svg id="Capa_1" enable-background="new 0 0 512 512" height="512" viewBox="0 0 512 512" width="512" xmlns="http://www.w3.org/2000/svg"><g><g><g><g><g><g><g><circle cx="256" cy="256" fill="#606aea" r="256"/></g></g></g></g></g></g><path d="m511.998 257.082-183.061-183.061-115.186 176.617-94.649-94.649-35.677 28.008 147.569 147.569-13.648 3.83 63.373 63.373-19.339 39.623-153.101-153.102-24.853 37.35 70.964 70.964-11.974 14.179 102.39 103.976c3.711.16 7.443.241 11.194.241 141.024 0 255.414-114.031 255.998-254.918z" fill="#4855b7"/><g><path d="m271 480.148h-30c0-18.386 3.719-28.056 7-36.587 2.793-7.264 5-13.002 5-25.818s-2.207-18.554-5-25.818c-3.281-8.531-7-18.201-7-36.587s3.719-28.055 7-36.585c2.793-7.264 5-13.001 5-25.817 0-12.815-2.206-18.552-5-25.815-3.281-8.531-7-18.2-7-36.585s3.719-28.053 7-36.583c2.794-7.263 5-13 5-25.814h30c0 18.385-3.719 28.053-7 36.583-2.794 7.263-5 13-5 25.814 0 12.815 2.206 18.552 5 25.815 3.281 8.531 7 18.2 7 36.585 0 18.386-3.719 28.055-7 36.585-2.793 7.264-5 13.001-5 25.817s2.207 18.554 5 25.818c3.281 8.531 7 18.201 7 36.587s-3.719 28.056-7 36.587c-2.793 7.264-5 13.002-5 25.818z" fill="#fff"/></g><g><path d="m283 292.935c0-18.385-3.719-28.054-7-36.585-2.794-7.263-5-13.001-5-25.815s2.206-18.551 5-25.814c3.281-8.53 7-18.199 7-36.583h-27v312.011h15c0-12.816 2.207-18.554 5-25.818 3.281-8.531 7-18.201 7-36.587s-3.719-28.056-7-36.587c-2.793-7.264-5-13.002-5-25.818 0-12.815 2.207-18.553 5-25.817 3.281-8.532 7-18.201 7-36.587z" fill="#e9edf5"/></g><g><circle cx="99.805" cy="168.137" fill="#96e8ff" r="22.805"/></g><g><circle cx="401.869" cy="212.209" fill="#ff636e" r="22.805"/></g><g><circle cx="424.674" cy="324.143" fill="#96e8ff" r="22.805"/></g><g><circle cx="92.437" cy="301.687" fill="#fff" r="22.805"/></g><g><circle cx="354.558" cy="390.634" fill="#ffce00" r="22.805"/></g><g><circle cx="157.444" cy="390.634" fill="#2fddd0" r="22.805"/></g><g><path d="m217.396 335.446-.05-.05 38.654-38.574 38.654 38.675c-21.353 21.308-55.933 21.286-77.258-.051z" fill="#fa0"/></g><g><path d="m256 296.822v54.641c13.984.013 27.974-5.308 38.654-15.966z" fill="#ff9500"/></g><g><path d="m368.926 171.38c0 70.432-50.559 152.763-112.926 152.763s-112.926-82.331-112.926-152.763 50.559-127.528 112.926-127.528 112.926 57.096 112.926 127.528z" fill="#ffce00"/></g><g><path d="m256 43.851v280.292c62.367 0 112.926-82.332 112.926-152.763 0-70.432-50.559-127.529-112.926-127.529z" fill="#fdba12"/></g></g></svg>
