<svg height="512pt" viewBox="0 0 512 512" width="512pt" xmlns="http://www.w3.org/2000/svg"><path d="m512 256c0 141.386719-114.613281 256-256 256s-256-114.613281-256-256 114.613281-256 256-256 256 114.613281 256 256zm0 0" fill="#fdbf00"/><path d="m510.078125 224.585938-102.933594-102.933594-101.085937 101.085937-98.527344-98.523437-64.632812 64.632812 16.8125 16.808594-40.875 40.875 52.664062 52.71875-12.253906 21.8125 11.761718 43.691406-25.921874 39.394532 107.8125 107.8125c1.035156.011718 2.0625.039062 3.101562.039062 141.386719 0 256-114.613281 256-256 0-10.636719-.660156-21.117188-1.921875-31.414062zm0 0" fill="#ff9100"/><path d="m165.230469 404.113281h-20.171875c0-12.539062 7.089844-22.910156 12.792968-31.253906 3.625-5.308594 7.378907-10.792969 7.378907-14.132813 0-2.90625-3.746094-6.894531-7.359375-10.753906-5.710938-6.085937-12.8125-14.332031-12.8125-25.21875 0-10.882812 7.101562-18.457031 12.8125-24.542968 3.617187-3.859376 7.359375-7.851563 7.359375-10.753907 0-2.90625-3.746094-6.894531-7.359375-10.757812-5.710938-6.085938-12.8125-13.660157-12.8125-24.542969h20.171875c0 2.90625 3.742187 6.894531 7.355469 10.753906 5.714843 6.089844 12.8125 13.664063 12.8125 24.546875 0 10.882813-7.097657 18.457031-12.8125 24.542969-3.613282 3.859375-7.355469 7.851562-7.355469 10.753906 0 2.90625 3.742187 6.894532 7.355469 10.757813 5.714843 6.085937 12.8125 14.332031 12.8125 25.214843 0 9.582032-5.535157 17.679688-10.890626 25.519532-4.5625 6.667968-9.277343 13.5625-9.277343 19.867187zm0 0" fill="#d8d8fc"/><path d="m155.144531 100.871094c-38.929687 0-71.273437 31.667968-71.273437 70.601562 0 36.507813 30.324218 90.769532 71.273437 90.769532s70.597657-54.261719 70.597657-90.769532c0-38.933594-31.667969-70.601562-70.597657-70.601562zm0 0" fill="#fbf"/><path d="m225.742188 171.472656c0 36.507813-29.648438 90.769532-70.597657 90.769532v-161.371094c38.929688 0 70.597657 31.667968 70.597657 70.601562zm0 0" fill="#ff9ef3"/><path d="m195.484375 161.386719h-20.167969c0-5.566407-4.523437-10.085938-10.085937-10.085938v-20.171875c16.683593 0 30.253906 13.570313 30.253906 30.257813zm0 0" fill="#ff7cb9"/><path d="m366.941406 404.113281h-20.171875c0-12.539062 7.09375-22.910156 12.796875-31.253906 3.625-5.308594 7.375-10.792969 7.375-14.132813 0-2.90625-3.742187-6.894531-7.355468-10.753906-5.714844-6.085937-12.816407-14.332031-12.816407-25.21875 0-10.882812 7.101563-18.457031 12.816407-24.542968 3.613281-3.859376 7.355468-7.851563 7.355468-10.753907 0-2.90625-3.742187-6.894531-7.355468-10.757812-5.714844-6.085938-12.816407-13.660157-12.816407-24.542969h20.171875c0 2.90625 3.742188 6.894531 7.359375 10.753906 5.710938 6.089844 12.8125 13.664063 12.8125 24.546875 0 10.882813-7.101562 18.457031-12.8125 24.542969-3.617187 3.859375-7.359375 7.851562-7.359375 10.753906 0 2.90625 3.742188 6.894532 7.359375 10.757813 5.710938 6.085937 12.8125 14.332031 12.8125 25.214843 0 9.582032-5.535156 17.679688-10.894531 25.519532-4.558594 6.667968-9.277344 13.5625-9.277344 19.867187zm0 0" fill="#d8d8fc"/><path d="m356.855469 100.871094c-38.929688 0-70.597657 31.667968-70.597657 70.601562 0 36.507813 29.648438 90.769532 70.597657 90.769532s71.273437-54.261719 71.273437-90.769532c0-38.933594-32.34375-70.601562-71.273437-70.601562zm0 0" fill="#fbf"/><path d="m428.128906 171.472656c0 36.507813-30.324218 90.769532-71.273437 90.769532v-161.371094c38.929687 0 71.273437 31.667968 71.273437 70.601562zm0 0" fill="#ff9ef3"/><path d="m397.199219 161.386719h-20.171875c0-5.566407-4.519532-10.085938-10.085938-10.085938v-20.171875c16.6875 0 30.257813 13.570313 30.257813 30.257813zm0 0" fill="#ff7cb9"/><path d="m266.085938 445.128906h-20.171876c0-12.539062 7.09375-23.582031 12.796876-31.925781 3.625-5.308594 7.375-10.792969 7.375-14.132813 0-2.90625-3.742188-6.894531-7.355469-10.753906-5.714844-6.089844-12.816407-13.664062-12.816407-24.546875 0-10.882812 7.101563-18.457031 12.816407-24.542969 3.613281-3.859374 7.355469-8.523437 7.355469-11.425781 0-2.90625-3.742188-6.894531-7.355469-10.757812-5.714844-6.085938-12.816407-13.660157-12.816407-24.542969h20.171876c0 2.90625 3.742187 6.894531 7.355468 10.753906 5.714844 6.089844 12.816406 13.660156 12.816406 24.546875 0 10.882813-7.101562 19.128907-12.816406 25.214844-3.613281 3.863281-7.355468 7.851563-7.355468 10.753906 0 2.90625 3.742187 6.894531 7.355468 10.757813 5.714844 6.085937 12.816406 13.660156 12.816406 24.542968 0 9.582032-5.535156 18.351563-10.894531 26.191407-4.558593 6.667969-9.277343 13.5625-9.277343 19.867187zm0 0" fill="#d8d8fc"/><path d="m256 141.214844c-38.929688 0-70.601562 31.667968-70.601562 70.597656 0 36.511719 29.652343 90.773438 70.601562 90.773438s70.601562-54.261719 70.601562-90.773438c0-38.929688-31.671874-70.597656-70.601562-70.597656zm0 0" fill="#ff637b"/><path d="m326.601562 211.8125c0 36.511719-29.652343 90.773438-70.601562 90.773438v-161.371094c38.929688 0 70.601562 31.667968 70.601562 70.597656zm0 0" fill="#e63950"/><path d="m296.34375 201.726562h-20.171875c0-5.5625-4.519531-10.085937-10.085937-10.085937v-20.167969c16.683593 0 30.257812 13.570313 30.257812 30.253906zm0 0" fill="#ae2538"/></svg>
