<?xml version="1.0" encoding="iso-8859-1"?>
<!-- Generator: Adobe Illustrator 19.0.0, SVG Export Plug-In . SVG Version: 6.00 Build 0)  -->
<svg version="1.1" id="Capa_1" xmlns="http://www.w3.org/2000/svg" xmlns:xlink="http://www.w3.org/1999/xlink" x="0px" y="0px"
	 viewBox="0 0 512 512" style="enable-background:new 0 0 512 512;" xml:space="preserve">
<circle style="fill:#488E53;" cx="255.997" cy="255.997" r="255.997"/>
<path style="fill:#3A7545;" d="M511.884,248.537l-126.521-126.52l-12.998-11.506l-13.419-11.879l-69.264,85.749l-66.655-66.655
	l-0.032,0.032c-13.176-12.465-31.646-19.992-51.563-19.992c-39.685,0-71.455,28.991-71.455,65.391
	c0,16.254,6.431,31.416,17.313,43.088l-0.041,0.041l85.597,85.597l-78.616,97.328l122.607,122.607
	C249.88,511.926,252.931,512,256,512c141.385,0,256-114.616,256-256C512,253.503,511.955,251.016,511.884,248.537z"/>
<path style="fill:#FFFFFF;" d="M171.432,228.98c-40.858,0-71.455-30.332-71.455-65.824c0-36.4,31.769-65.391,71.455-65.391
	c38.39,0,71.455,27.919,71.455,65.391C242.886,199.159,211.569,228.98,171.432,228.98z M124.23,389.212l234.716-290.58
	l26.417,23.384l-234.716,290.58L124.23,389.212z M171.432,199.967c15.087,0,30.75-15.166,30.75-36.81
	c0-18.976-12.802-36.377-30.75-36.377c-15.056,0-30.747,15.28-30.747,36.377C140.685,182.499,153.756,199.967,171.432,199.967z
	 M338.594,413.896c-39.156,0-71.455-28.415-71.455-65.391c0-35.262,30.406-65.825,71.455-65.825
	c37.727,0,71.455,26.928,71.455,65.825C410.049,388.359,375.065,413.896,338.594,413.896z M338.594,384.88
	c15,0,30.747-15.149,30.747-36.375c0-18.278-12.634-36.81-30.747-36.81c-15.039,0-30.747,15.121-30.747,36.81
	C307.847,367.487,320.64,384.88,338.594,384.88z"/>
<path style="fill:#B5DFEC;" d="M372.365,110.511l12.998,11.506L150.647,412.596l-13.652-12.085L372.365,110.511z M338.594,413.896
	c-39.156,0-71.455-28.415-71.455-65.391c0-35.262,30.406-65.825,71.455-65.825c37.727,0,71.455,26.928,71.455,65.825
	C410.049,388.359,375.065,413.896,338.594,413.896z M338.594,384.88c15,0,30.747-15.149,30.747-36.375
	c0-18.278-12.634-36.81-30.747-36.81c-15.039,0-30.747,15.121-30.747,36.81C307.847,367.487,320.64,384.88,338.594,384.88z"/>
<g>
</g>
<g>
</g>
<g>
</g>
<g>
</g>
<g>
</g>
<g>
</g>
<g>
</g>
<g>
</g>
<g>
</g>
<g>
</g>
<g>
</g>
<g>
</g>
<g>
</g>
<g>
</g>
<g>
</g>
</svg>
