<svg xmlns="http://www.w3.org/2000/svg" viewBox="0 0 512 512"><path d="m512 256c0 141.386719-114.613281 256-256 256s-256-114.613281-256-256 114.613281-256 256-256 256 114.613281 256 256zm0 0" fill="#4a7aff"/><path d="m510.167969 286.632812-177.675781-177.675781-32.292969 18.753907-71.210938-71.210938-23.136719 44.347656 107.433594 107.433594-42.078125 36.808594-121.136719-121.136719-16.363281 16.363281 120.046875 120.042969-42.082031 36.808594-101.070313-101.070313-44.347656 23.140625 109.421875 109.417969-62.84375 54.972656 127.910157 127.90625c5.050781.296875 10.132812.464844 15.257812.464844 131.015625 0 239.027344-98.425781 254.167969-225.367188zm0 0" fill="#2864f0"/><path d="m310.644531 207.667969c0 51.484375-41.738281 93.222656-93.222656 93.222656-51.488281 0-93.222656-41.738281-93.222656-93.222656 0-51.488281 41.734375-93.222657 93.222656-93.222657 51.484375 0 93.222656 41.734376 93.222656 93.222657zm0 0" fill="#fdba12"/><path d="m217.421875 114.445312c-.082031 0-.160156 0-.238281 0v186.441407c.078125 0 .15625.003906.238281.003906 51.484375 0 93.222656-41.738281 93.222656-93.222656 0-51.488281-41.738281-93.222657-93.222656-93.222657zm0 0" fill="#ffa300"/><path d="m279.636719 207.667969c0 34.359375-27.855469 62.214843-62.214844 62.214843s-62.214844-27.855468-62.214844-62.214843c0-34.363281 27.855469-62.214844 62.214844-62.214844s62.214844 27.851563 62.214844 62.214844zm0 0" fill="#fcda15"/><path d="m217.421875 145.453125c-.082031 0-.160156.003906-.238281.003906v124.417969c.078125 0 .15625.007812.238281.007812 34.359375 0 62.214844-27.855468 62.214844-62.214843 0-34.363281-27.855469-62.214844-62.214844-62.214844zm0 0" fill="#efc820"/><path d="m205.851562 56.5h23.136719v44.347656h-23.136719zm0 0" fill="#fdba12"/><path d="m217.183594 56.5h11.804687v44.347656h-11.804687zm0 0" fill="#ffa300"/><path d="m205.851562 314.484375h23.136719v44.347656h-23.136719zm0 0" fill="#fdba12"/><path d="m368.585938 196.097656v23.136719h-44.34375v-23.136719zm0 0" fill="#ffa300"/><path d="m110.601562 196.097656v23.136719h-44.347656v-23.136719zm0 0" fill="#fdba12"/><path d="m316.128906 92.59375 16.363282 16.359375-31.359376 31.359375-16.359374-16.363281zm0 0" fill="#ffa300"/><g fill="#fdba12"><path d="m133.707031 275.015625 16.363281 16.363281-31.359374 31.355469-16.359376-16.359375zm0 0"/><path d="m102.347656 108.957031 16.359375-16.363281 31.359375 31.359375-16.359375 16.359375zm0 0"/><path d="m284.769531 291.378906 16.359375-16.359375 31.359375 31.355469-16.359375 16.363281zm0 0"/></g><path d="m358.933594 411.445312c42.710937 0 77.332031-34.625 77.332031-77.335937s-34.621094-77.335937-77.332031-77.335937c-2.089844 0-4.15625.085937-6.203125.25-8.050781-41.609376-44.667969-73.035157-88.628907-73.035157-34.238281 0-64.023437 19.058594-79.328124 47.144531-2.230469-.167968-4.484376-.253906-6.757813-.253906-49.863281 0-90.28125 40.421875-90.28125 90.285156 0 49.859376 40.417969 90.28125 90.28125 90.28125zm0 0" fill="#fff"/><path d="m358.933594 256.773438c-2.089844 0-4.15625.085937-6.203125.25-8.050781-41.613282-44.667969-73.035157-88.628907-73.035157-.257812 0-.511718.011719-.765624.011719v227.445312h95.597656c42.710937 0 77.332031-34.625 77.332031-77.335937s-34.621094-77.335937-77.332031-77.335937zm0 0" fill="#e9edf5"/></svg>
