<svg xmlns="http://www.w3.org/2000/svg" xmlns:xlink="http://www.w3.org/1999/xlink" viewBox="0 0 512 512" xml:space="preserve">
<circle style="fill: #4ab9ff;" cx="256" cy="256" r="256"/>
<path style="fill: #3e9bd6;" d="M293.288,509.288c119.159-17.391,211.675-116.856,218.32-239.182L368.333,126.832l-8.4,18.435  L279,64.333l-5.823,139.695L131,214.832l91.525,91.525L165.578,333l84.346,84.346L233,449L293.288,509.288z"/>
<rect x="233" y="64.33" style="fill: #c75e0b;" width="46" height="384.67"/>
<g>
	<rect x="255.95" y="64.33" style="fill:#D66D1C;" width="23.05" height="384.67"/>
	<polygon style="fill:#D66D1C;" points="131,214.832 368.333,214.832 368.333,126.832 131,126.832 93.578,169.498  "/>
</g>
<rect x="255.95" y="126.83" style="fill:#C75E0B;" width="112.38" height="88"/>
<polygon style="fill:#D66D1C;" points="402.911,245 165.578,245 165.578,333 402.911,333 440.333,290.333 "/>
<polygon style="fill:#C75E0B;" points="440.333,290.333 402.911,245 255.952,245 255.952,333 402.911,333 "/>
</svg>
