<svg xmlns="http://www.w3.org/2000/svg" viewBox="0 0 512 512"><path d="m512 256c0 141.386719-114.613281 256-256 256s-256-114.613281-256-256 114.613281-256 256-256 256 114.613281 256 256zm0 0" fill="#3b9dd0"/><path d="m512 256c0-29.101562-4.863281-57.0625-13.808594-83.125l-54.074218-54.074219-59.164063 144.921875-130.679687-130.675781-174.390626 254.339844 117.980469 117.980469c18.675781 4.335937 38.136719 6.632812 58.136719 6.632812 141.386719 0 256-114.613281 256-256zm0 0" fill="#2c81ad"/><path d="m201.292969 340.664062-121.410157 46.722657v-221.863281l121.410157-46.722657zm0 0" fill="#dadada"/><path d="m79.882812 255.90625v131.480469l121.410157-46.722657v-84.757812zm0 0" fill="#dadada"/><path d="m444.117188 340.664062-121.410157 46.722657v-221.863281l121.410157-46.722657zm0 0" fill="#dadada"/><g fill="#dadada"><path d="m322.707031 255.90625v131.480469l121.410157-46.722657v-84.757812zm0 0"/><path d="m201.292969 340.664062 121.414062 46.722657v-221.863281l-121.414062-46.722657zm0 0"/><path d="m201.292969 255.90625v84.757812l121.414062 46.722657v-131.480469zm0 0"/></g><path d="m330.84375 326.84375-70.554688-47.023438-46.515624 28.742188-14.445313.726562-84.292969-41 13.121094-26.976562 76.871094 37.390625 47.683594-29.464844 16.203124.28125 69.332032 46.207031 66.519531-54.457031 19.003906 23.214844-75.105469 61.484375zm0 0" fill="#ccc"/><path d="m386.886719 255.90625-48.640625 39.820312-59.75-39.820312h-36.574219l-36.894531 22.796875-46.871094-22.796875h-37.097656l-6.023438 12.382812 84.292969 41 14.445313-.726562 46.515624-28.742188 70.554688 47.023438 17.820312-.875 75.105469-61.484375-7.027343-8.578125zm0 0" fill="#ccc"/><path d="m201.292969 108.925781c-38.796875 0-70.246094 31.449219-70.246094 70.246094 0 38.800781 70.246094 122.34375 70.246094 122.34375s70.25-83.542969 70.25-122.34375c0-38.796875-31.449219-70.246094-70.25-70.246094zm0 104.1875c-20.921875 0-37.886719-16.960937-37.886719-37.886719 0-20.921874 16.964844-37.886718 37.886719-37.886718 20.925781 0 37.886719 16.964844 37.886719 37.886718 0 20.925782-16.960938 37.886719-37.886719 37.886719zm0 0" fill="#fff"/><path d="m271.542969 179.171875c0-38.796875-31.453125-70.246094-70.25-70.246094-.25 0-.496094.015625-.746094.015625v28.417969c.25-.007813.496094-.019531.746094-.019531 20.925781 0 37.886719 16.960937 37.886719 37.886718 0 20.925782-16.960938 37.886719-37.886719 37.886719-.25 0-.496094-.015625-.746094-.019531v87.523438c.484375.585937.746094.898437.746094.898437s70.25-83.542969 70.25-122.34375zm0 0" fill="#fff"/></svg>
