<svg xmlns="http://www.w3.org/2000/svg" xmlns:xlink="http://www.w3.org/1999/xlink" version="1.1" id="Capa_1" x="0px" y="0px" viewBox="0 0 512 512" xml:space="preserve">
<circle style="fill: #00b4ff;" cx="256" cy="256" r="256"/>
<path style="fill: #0090ff;" d="M512,256c0-9.152-0.49-18.189-1.427-27.093L381.667,100l-180.262,76.143l4.88,133.219  l-85.791,102.412l97.399,97.399C230.327,511.029,243.05,512,256,512C397.385,512,512,397.385,512,256z"/>
<path style="fill: #ffffff;" d="M171.905,160.787v9.134v32.029v127.802c-5.893-1.518-12.189-2.352-18.74-2.352  c-32.789,0-59.37,20.588-59.37,45.984s26.581,45.984,59.37,45.984s59.37-20.588,59.37-45.984V190.176l128.503-37.239v129.571  c-5.893-1.518-12.189-2.352-18.74-2.352c-32.789,0-59.37,20.588-59.37,45.984s26.581,45.984,59.37,45.984s59.37-20.588,59.37-45.984  V141.163v-18.486V100L171.905,160.787z"/>
<path style="fill: #ffffff;" d="M255,136.707v41.163l86.037-24.933v129.571c-5.893-1.518-12.189-2.352-18.74-2.352  c-32.789,0-59.37,20.588-59.37,45.984s26.581,45.984,59.37,45.984s59.37-20.588,59.37-45.984V141.163v-18.486V100L255,136.707z"/>
</svg>