<svg xmlns="http://www.w3.org/2000/svg" viewBox="0 0 512 512"><path d="m512 256c0 141.386719-114.613281 256-256 256s-256-114.613281-256-256 114.613281-256 256-256 256 114.613281 256 256zm0 0" fill="#fc1f80"/><path d="m279.882812 510.882812c130.183594-12.046874 232.117188-121.554687 232.117188-254.882812 0-4.476562-.117188-8.925781-.34375-13.34375l-118.65625-118.65625-143 113.453125 10.707031 168.363281-79.375 6.515625zm0 0" fill="#af1154"/><path d="m270.332031 246.667969 122.667969-122.667969h-274l122.667969 122.667969v145.664062h-60.335938v20h149.335938v-20h-60.335938zm0 0" fill="#fff"/><path d="m270.332031 246.667969 122.667969-122.667969h-137.453125v288.332031h75.121094v-20h-60.335938zm0 0" fill="#e9edf5"/><path d="m341.332031 163h-170.664062l84.878906 84.882812zm0 0" fill="#ffd93b"/><path d="m341.332031 163h-85.785156v84.882812zm0 0" fill="#fdba12"/></svg>
