<svg xmlns="http://www.w3.org/2000/svg" viewBox="0 0 512 512"><path d="m512 256c0 141.386719-114.613281 256-256 256s-256-114.613281-256-256 114.613281-256 256-256 256 114.613281 256 256zm0 0" fill="#a2d8f4"/><path d="m142.441406 393.578125 118.363282 118.359375c137.175781-2.523438 247.980468-112.9375 251.121093-249.964844l-140.558593-140.558594zm0 0" fill="#27b2eb"/><path d="m366.058594 339.859375v-168.480469c8.5625-6.054687 14.160156-16.027344 14.160156-27.3125 0-18.460937-14.96875-33.429687-33.433594-33.429687-10.964844 0-20.699218 5.277343-26.792968 13.429687h-130.269532c-6.097656-8.152344-15.828125-13.429687-26.792968-13.429687-18.464844 0-33.433594 14.964843-33.433594 33.429687 0 10.964844 5.277344 20.699219 13.433594 26.792969v169.515625c-8.152344 6.097656-13.433594 15.828125-13.433594 26.792969 0 18.464843 14.96875 33.433593 33.433594 33.433593 10.964843 0 20.695312-5.277343 26.792968-13.433593h130.265625c6.097657 8.152343 15.828125 13.433593 26.792969 13.433593 18.464844 0 33.433594-14.96875 33.433594-33.433593 0-11.285157-5.59375-21.253907-14.15625-27.308594zm0 0" fill="#ffd27b"/><path d="m380.214844 144.066406c0-18.460937-14.96875-33.429687-33.433594-33.429687-10.964844 0-20.695312 5.277343-26.792969 13.429687h-63.988281v263.101563h63.988281c6.097657 8.15625 15.828125 13.433593 26.792969 13.433593 18.464844 0 33.433594-14.96875 33.433594-33.433593 0-11.285157-5.597656-21.253907-14.160156-27.308594v-168.480469c8.566406-6.054687 14.160156-16.027344 14.160156-27.3125zm0 0" fill="#ff9f00"/><path d="m168.652344 147.558594h171.683594v216.117187h-171.683594zm0 0" fill="#005285"/><path d="m256 147.558594h84.332031v216.117187h-84.332031zm0 0" fill="#001035"/></svg>
