<svg height="512pt" viewBox="0 0 512 512" width="512pt" xmlns="http://www.w3.org/2000/svg"><path d="m512 256c0 141.386719-114.613281 256-256 256s-256-114.613281-256-256 114.613281-256 256-256 256 114.613281 256 256zm0 0" fill="#ffe000"/><path d="m342.355469 497.054688c92.5625-33.167969 160.460937-118.121094 168.773437-219.953126l-80.695312-80.691406-15.570313 25.90625-124.984375-124.984375-162.105468 185.144531zm0 0" fill="#ffc200"/><path d="m289.878906 97.332031v125.714844c0 34.71875-19.417968 66.519531-50.296875 82.382813l-20.839843 10.703124c-13 6.679688-28.421876 6.679688-41.417969 0l-20.839844-10.703124c-30.878906-15.863282-50.296875-47.664063-50.296875-82.382813v-125.714844zm0 0" fill="#fff"/><path d="m197.476562 97.332031v223.792969c7.289063.089844 14.597657-1.566406 21.265626-4.992188l20.839843-10.703124c30.878907-15.863282 50.296875-47.664063 50.296875-82.382813v-125.714844zm0 0" fill="#f2f6fc"/><path d="m198.109375 284.5h-.152344c-32.03125 0-58.089843-26.058594-58.089843-58.089844h25c0 18.246094 14.84375 33.089844 33.089843 33.089844h.152344c18.246094 0 33.089844-14.84375 33.089844-33.089844h25c0 32.03125-26.058594 58.089844-58.089844 58.089844zm0 0" fill="#afb4c8"/><path d="m231.199219 226.410156c0 18.246094-14.84375 33.089844-33.089844 33.089844h-.152344c-.160156 0-.320312-.011719-.480469-.011719v25c.160157 0 .320313.011719.480469.011719h.152344c32.03125 0 58.089844-26.058594 58.089844-58.089844zm0 0" fill="#9196aa"/><path d="m138.199219 157.167969h40v25h-40zm0 0" fill="#afb4c8"/><path d="m217.867188 157.167969h40v25h-40zm0 0" fill="#9196aa"/><path d="m430.433594 196.410156v125.714844c0 34.714844-19.414063 66.515625-50.292969 82.378906l-20.839844 10.707032c-13 6.675781-28.421875 6.675781-41.421875 0l-20.839844-10.707032c-30.878906-15.863281-50.292968-47.664062-50.292968-82.378906v-125.714844zm0 0" fill="#00617e"/><path d="m337.953125 196.410156v223.789063c7.316406.101562 14.652344-1.550781 21.347656-4.992188l20.839844-10.703125c30.878906-15.863281 50.292969-47.664062 50.292969-82.382812v-125.710938zm0 0" fill="#034051"/><path d="m396.757812 372.308594h-25c0-18.246094-14.847656-33.089844-33.09375-33.089844h-.148437c-18.246094 0-33.09375 14.84375-33.09375 33.089844h-25c0-32.03125 26.0625-58.089844 58.09375-58.089844h.148437c32.03125 0 58.09375 26.058594 58.09375 58.089844zm0 0" fill="#afb4c8"/><path d="m338.664062 314.21875h-.148437c-.1875 0-.375.011719-.5625.011719v25c.1875-.003907.375-.011719.5625-.011719h.148437c18.246094 0 33.09375 14.84375 33.09375 33.089844h25c0-32.03125-26.0625-58.089844-58.09375-58.089844zm0 0" fill="#9196aa"/><path d="m278.757812 257.476562h40v25h-40zm0 0" fill="#afb4c8"/><path d="m358.421875 257.476562h40v25h-40zm0 0" fill="#9196aa"/></svg>