<svg xmlns="http://www.w3.org/2000/svg" viewBox="0 0 512 512"><path d="m512 256c0 141.386719-114.613281 256-256 256s-256-114.613281-256-256 114.613281-256 256-256 256 114.613281 256 256zm0 0" fill="#337aad"/><path d="m507.1875 206.4375-115.433594-115.433594-20.148437 20.152344 9.960937 31.960938 3.484375 18.515624-70.628906-70.628906-17.375 17.375 8.953125 13.289063-30.597656-30.660157-17.199219 17.195313 10.464844 15.132813-32.246094-32.328126-17.199219 17.195313 12.277344 50.796875-6-5.5-49.078125-49.246094-72.839844 72.839844 21.332031 21.332031-13 13 36.417969 35.238281-22.667969 174.355469 87.375 87.371094c13.96875 2.363281 28.320313 3.609375 42.960938 3.609375 141.386719 0 256-114.613281 256-256 0-16.957031-1.664062-33.523438-4.8125-49.5625zm0 0" fill="#275d86"/><path d="m353.082031 294.027344h38.671875v126.972656h-38.671875zm0 0" fill="#54a0c8"/><path d="m340.191406 149.007812 12.890625 145.019532h38.671875v-183.691406c-20.300781-9.667969-51.5625 17.347656-51.5625 38.671874zm0 0" fill="#76c5e4"/><path d="m333.746094 149.007812v145.019532h19.335937v-145.019532c0-21.324218 17.347657-38.671874 38.671875-38.671874v-19.335938c-32.039062 0-58.007812 25.96875-58.007812 58.007812zm0 0" fill="#7de1fa"/><path d="m285.085938 294.027344v126.972656h-38.671876v-126.972656l19.332032-19.335938zm0 0" fill="#54a0c8"/><path d="m164.335938 294.027344v126.972656h-38.675782v-126.972656l19.335938-19.335938zm0 0" fill="#76c5e4"/><g fill="#7de1fa"><path d="m197.75 158.675781c0-37.378906-23.621094-67.675781-52.753906-67.675781-29.128906 0-52.75 30.296875-52.75 67.675781 0 28.621094 13.847656 53.089844 33.414062 62.984375v72.367188h38.675782v-72.367188c19.566406-9.894531 33.414062-34.363281 33.414062-62.984375zm0 0"/><path d="m314.414062 91v58.929688l-19.335937 19.335937v-78.265625zm0 0"/><path d="m256.082031 91h19.335938v78.265625h-19.335938zm0 0"/><path d="m236.425781 91v78.265625l-19.335937-19.335937v-58.929688zm0 0"/></g><path d="m217.089844 149.929688v26.4375c0 20.121093 12.207031 37.480468 29.621094 44.894531h-.296876v72.765625h38.675782v-72.765625h-.304688c17.414063-7.414063 29.628906-24.769531 29.628906-44.894531v-26.4375zm0 0" fill="#76c5e4"/></svg>
