<?xml version="1.0" encoding="iso-8859-1"?>
<!-- Generator: Adobe Illustrator 19.0.0, SVG Export Plug-In . SVG Version: 6.00 Build 0)  -->
<svg version="1.1" id="Capa_1" xmlns="http://www.w3.org/2000/svg" xmlns:xlink="http://www.w3.org/1999/xlink" x="0px" y="0px"
	 viewBox="0 0 512 512" style="enable-background:new 0 0 512 512;" xml:space="preserve">
<circle style="fill:#2196F3;" cx="256" cy="256" r="256"/>
<path style="fill:#FAFAFA;" d="M376.704,290.592c-7.328-4.736-17.28-2.72-22.112,4.672c-31.648,48.704-76.352,56.704-98.592,57.408
	V268.48l51.872-12.96c8.608-2.144,13.792-10.816,11.648-19.392c-2.144-8.576-11.008-13.856-19.392-11.648L256,235.52v-31.04
	l51.872-12.96c8.608-2.144,13.792-10.816,11.648-19.392c-2.144-8.576-11.008-13.888-19.392-11.648L256,171.52V144
	c0-8.832-7.168-16-16-16s-16,7.168-16,16v35.52l-51.872,12.96c-8.576,2.144-13.792,10.848-11.648,19.392
	C162.304,219.168,168.8,224,176,224c1.28,0,2.592-0.16,3.904-0.48L224,212.48v31.04l-51.872,12.96
	c-8.576,2.144-13.792,10.848-11.648,19.392C162.304,283.168,168.8,288,176,288c1.28,0,2.592-0.16,3.904-0.48L224,276.48V368
	c0,7.904,5.792,14.624,13.6,15.808c0.864,0.128,6.208,0.864,14.656,0.864c27.52,0,87.584-8,129.152-71.968
	C386.208,305.312,384.128,295.392,376.704,290.592z"/>
<g>
</g>
<g>
</g>
<g>
</g>
<g>
</g>
<g>
</g>
<g>
</g>
<g>
</g>
<g>
</g>
<g>
</g>
<g>
</g>
<g>
</g>
<g>
</g>
<g>
</g>
<g>
</g>
<g>
</g>
</svg>
